<?xml version="1.0" encoding="utf-8"?>
<!-- Generator: Adobe Illustrator 19.2.1, SVG Export Plug-In . SVG Version: 6.00 Build 0)  -->
<svg version="1.1" id="Layer_1" xmlns="http://www.w3.org/2000/svg" xmlns:xlink="http://www.w3.org/1999/xlink" x="0px" y="0px"
	 width="267.3800049px" height="67.8499985px" viewBox="0 0 267.3800049 67.8499985"
	 enable-background="new 0 0 267.3800049 67.8499985" xml:space="preserve">
<g id="XMLID_169_">
	<g id="XMLID_46_">
		<path id="XMLID_47_" d="M82.281929,31.7687111h-8.59375l-2.0625,6.09375h-3.640625l8.140625-22.546875h3.78125l8.140625,22.546875
			h-3.703125L82.281929,31.7687111z M74.578804,28.9562111h6.8125l-3.359375-9.890625h-0.09375L74.578804,28.9562111z"/>
		<path id="XMLID_50_" d="M105.6095657,29.6437111c0,5.109375-2.734375,8.390625-6.8588867,8.390625
			c-2.34375,0-4.203125-1.046875-5.171875-2.875h-0.078125v8.140625h-3.375v-21.875h3.265625v2.734375h0.0625
			c0.9375-1.765625,2.9375-2.90625,5.234375-2.90625C102.8595657,21.2530861,105.6095657,24.5499611,105.6095657,29.6437111z
			 M102.1408157,29.6437111c0-3.328125-1.71875-5.515625-4.3432617-5.515625c-2.578125,0-4.3125,2.234375-4.3125,5.515625
			c0,3.3125,1.734375,5.53125,4.3125,5.53125C100.4220657,35.1749611,102.1408157,33.0030861,102.1408157,29.6437111z"/>
		<path id="XMLID_53_" d="M123.7521439,29.6437111c0,5.109375-2.734375,8.390625-6.859375,8.390625
			c-2.34375,0-4.203125-1.046875-5.171875-2.875h-0.078125v8.140625h-3.375v-21.875h3.265625v2.734375h0.0625
			c0.9375-1.765625,2.9375-2.90625,5.234375-2.90625C121.0021439,21.2530861,123.7521439,24.5499611,123.7521439,29.6437111z
			 M120.2833939,29.6437111c0-3.328125-1.71875-5.515625-4.34375-5.515625c-2.578125,0-4.3125,2.234375-4.3125,5.515625
			c0,3.3125,1.734375,5.53125,4.3125,5.53125C118.5646439,35.1749611,120.2833939,33.0030861,120.2833939,29.6437111z"/>
		<path id="XMLID_56_" d="M126.7589798,15.3155861h3.3750076v22.546875h-3.3750076V15.3155861z"/>
		<path id="XMLID_58_" d="M147.9845734,33.0343361c-0.453125,2.984375-3.359375,5.03125-7.078125,5.03125
			c-4.78125,0-7.75-3.203125-7.75-8.34375c0-5.15625,2.984375-8.5,7.609375-8.5c4.546875,0,7.40625,3.125,7.40625,8.109375v1.15625
			h-11.609375v0.203125c0,2.8125,1.765625,4.65625,4.421875,4.65625c1.875,0,3.34375-0.890625,3.796875-2.3125H147.9845734z
			 M136.5783234,28.1280861h8.21875c-0.078125-2.515625-1.6875-4.171875-4.03125-4.171875
			C138.4376984,23.9562111,136.7501984,25.6437111,136.5783234,28.1280861z"/>
		<path id="XMLID_61_" d="M162.5294952,37.8624611v-19.53125h-6.90625v-3.015625h17.296875v3.015625h-6.890625v19.53125H162.5294952
			z"/>
		<path id="XMLID_63_" d="M186.0695343,33.0343361c-0.453125,2.984375-3.359375,5.03125-7.078125,5.03125
			c-4.78125,0-7.75-3.203125-7.75-8.34375c0-5.15625,2.984375-8.5,7.609375-8.5c4.546875,0,7.40625,3.125,7.40625,8.109375v1.15625
			h-11.609375v0.203125c0,2.8125,1.765625,4.65625,4.421875,4.65625c1.875,0,3.34375-0.890625,3.796875-2.3125H186.0695343z
			 M174.6632843,28.1280861h8.21875c-0.078125-2.515625-1.6875-4.171875-4.03125-4.171875
			C176.5226593,23.9562111,174.8351593,25.6437111,174.6632843,28.1280861z"/>
		<path id="XMLID_66_" d="M188.5949249,33.1905861c0-2.875,2.203125-4.609375,6.109375-4.84375l4.5-0.25v-1.25
			c0-1.828125-1.203125-2.859375-3.25-2.859375c-1.875,0-3.1875,0.890625-3.453125,2.3125h-3.15625
			c0.09375-2.96875,2.859375-5.078125,6.703125-5.078125c3.921875,0,6.515625,2.140625,6.515625,5.375v11.265625h-3.234375
			v-2.703125h-0.078125c-0.953125,1.828125-3.03125,2.984375-5.1875,2.984375
			C190.8449249,38.1437111,188.5949249,36.1437111,188.5949249,33.1905861z M199.2042999,31.7062111v-1.265625l-4.046875,0.25
			c-2.015625,0.125-3.15625,1-3.15625,2.40625c0,1.4375,1.1875,2.375,3,2.375
			C197.3605499,35.4718361,199.2042999,33.8468361,199.2042999,31.7062111z"/>
		<path id="XMLID_69_" d="M217.103714,27.0812111c-0.296875-1.734375-1.65625-3.03125-3.875-3.03125
			c-2.59375,0-4.3125,2.171875-4.3125,5.59375c0,3.5,1.734375,5.609375,4.34375,5.609375
			c2.09375,0,3.46875-1.046875,3.84375-2.953125h3.25c-0.375,3.453125-3.140625,5.765625-7.125,5.765625
			c-4.6875,0-7.75-3.203125-7.75-8.421875c0-5.109375,3.0625-8.421875,7.71875-8.421875c4.21875,0,6.84375,2.65625,7.125,5.859375
			H217.103714z"/>
		<path id="XMLID_71_" d="M223.0929718,15.3155861h3.34375v8.90625h0.078125c0.984375-1.96875,2.6875-2.984375,5.203125-2.984375
			c3.609375,0,5.765625,2.40625,5.765625,6.125v10.5h-3.390625v-9.828125c0-2.421875-1.21875-3.890625-3.59375-3.890625
			c-2.5,0-4.03125,1.71875-4.03125,4.328125v9.390625h-3.375V15.3155861z"/>
		<path id="XMLID_73_" d="M254.9240265,33.0343361c-0.453125,2.984375-3.359375,5.03125-7.078125,5.03125
			c-4.78125,0-7.75-3.203125-7.75-8.34375c0-5.15625,2.984375-8.5,7.609375-8.5c4.546875,0,7.40625,3.125,7.40625,8.109375v1.15625
			h-11.609375v0.203125c0,2.8125,1.765625,4.65625,4.421875,4.65625c1.875,0,3.34375-0.890625,3.796875-2.3125H254.9240265z
			 M243.5177765,28.1280861h8.21875c-0.078125-2.515625-1.6875-4.171875-4.03125-4.171875
			C245.3771515,23.9562111,243.6896515,25.6437111,243.5177765,28.1280861z"/>
		<path id="XMLID_76_" d="M257.9767456,21.4249611h3.21875v2.796875h0.078125c0.515625-1.859375,2.015625-2.96875,3.953125-2.96875
			c0.484375,0,0.890625,0.0625,1.15625,0.125v3.15625c-0.265625-0.109375-0.859375-0.203125-1.515625-0.203125
			c-2.171875,0-3.515625,1.46875-3.515625,3.78125v9.75h-3.375V21.4249611z"/>
	</g>
	<g id="XMLID_7_">
		<path id="XMLID_8_" d="M69.2892532,59.1427345c0.1660156,1.5234375,1.6113281,2.5292969,3.6230469,2.5292969
			c1.9042969,0,3.2910156-1.0058594,3.2910156-2.3925781c0-1.1914062-0.8300781-1.9238281-2.7246094-2.4121094l-1.8066406-0.46875
			c-2.5976562-0.6640625-3.75-1.8066406-3.75-3.7207031c0-2.34375,2.0507812-3.984375,4.9804688-3.984375
			c2.8027344,0,4.8339844,1.6601562,4.9121094,4.0234375h-1.7578125c-0.15625-1.5136719-1.3769531-2.4414062-3.2128906-2.4414062
			c-1.8261719,0-3.0957031,0.9472656-3.0957031,2.3242188c0,1.0644531,0.78125,1.6992188,2.6953125,2.1972656l1.4746094,0.390625
			c2.9199219,0.7324219,4.1015625,1.8554688,4.1015625,3.8769531c0,2.578125-2.03125,4.1894531-5.2734375,4.1894531
			c-2.9882812,0-5.0585938-1.6210938-5.2246094-4.1113281H69.2892532z"/>
		<path id="XMLID_10_" d="M90.0748978,63.0196877h-1.7285156l-2.2949219-7.8613281h-0.0390625l-2.2851562,7.8613281h-1.7285156
			l-2.8417969-10.15625h1.6894531l2.03125,8.2617188h0.0390625l2.2949219-8.2617188h1.640625l2.3046875,8.2617188h0.0390625
			l2.03125-8.2617188h1.6796875L90.0748978,63.0196877z"/>
		<path id="XMLID_12_" d="M94.516304,50.0997658c0-0.5859375,0.4785156-1.0546875,1.0546875-1.0546875
			c0.5859375,0,1.0644531,0.46875,1.0644531,1.0546875c0,0.5761719-0.4785156,1.0546875-1.0644531,1.0546875
			C94.9948196,51.1544533,94.516304,50.6759377,94.516304,50.0997658z M94.7213821,52.8634377h1.6992188v10.15625h-1.6992188
			V52.8634377z"/>
		<path id="XMLID_15_" d="M99.6027298,54.259922h-1.4160156v-1.3964844h1.4160156v-0.9375
			c0-1.8847656,0.8203125-2.7148438,2.734375-2.7148438c0.3320312,0,0.6152344,0.0292969,0.9375,0.078125v1.3867188
			c-0.2246094-0.0390625-0.5078125-0.0683594-0.7714844-0.0683594c-0.8398438,0-1.2011719,0.390625-1.2109375,1.328125v0.9277344
			h1.9824219v1.3964844h-1.9726562v8.7597656h-1.6992188V54.259922z"/>
		<path id="XMLID_17_" d="M107.6183548,50.4122658v2.4511719h1.9726562v1.3964844h-1.9726562v6.0253906
			c0,0.9277344,0.390625,1.3476562,1.2597656,1.3476562c0.1953125,0,0.5859375-0.0292969,0.703125-0.0488281v1.4257812
			c-0.2050781,0.0488281-0.6738281,0.078125-1.0742188,0.078125c-1.8652344,0-2.5878906-0.7617188-2.5878906-2.7148438V54.259922
			h-1.5136719v-1.3964844h1.5136719v-2.4511719H107.6183548z"/>
		<path id="XMLID_19_" d="M121.4718704,48.9278908c2.6464844,0,4.5117188,1.8554688,4.5117188,4.5214844
			c0,2.6757812-1.8847656,4.5410156-4.53125,4.5410156h-3.2519531v5.0292969h-1.7578125V48.9278908H121.4718704z
			 M118.200386,56.4278908h2.8125c2.0117188,0,3.1640625-1.1035156,3.1640625-2.9785156
			c0-1.8652344-1.1425781-2.9589844-3.1640625-2.9589844h-2.8125V56.4278908z"/>
		<path id="XMLID_22_" d="M127.8800735,48.9278908h1.6992264v14.0917969h-1.6992264V48.9278908z"/>
		<path id="XMLID_24_" d="M131.8039093,60.1485939c0-1.7382812,1.3378906-2.8125,3.6816406-2.9492188l2.9101562-0.1660156
			v-0.8398438c0-1.2304688-0.8007812-1.9335938-2.1972656-1.9335938c-1.25,0-2.1289062,0.5859375-2.3242188,1.5429688h-1.6210938
			c0.0488281-1.7480469,1.7382812-3.0371094,3.9746094-3.0371094c2.3339844,0,3.8671875,1.2988281,3.8671875,3.28125v6.9726562
			h-1.6113281v-1.7480469h-0.0390625c-0.6054688,1.1621094-1.8945312,1.9335938-3.2617188,1.9335938
			C133.1613312,63.2052345,131.8039093,61.9747658,131.8039093,60.1485939z M138.3957062,59.1622658v-0.8105469
			l-2.7148438,0.1660156c-1.3671875,0.0878906-2.1484375,0.6738281-2.1484375,1.6308594
			c0,0.9667969,0.8105469,1.6015625,2.03125,1.6015625C137.1652374,61.7501564,138.3957062,60.6271095,138.3957062,59.1622658z"/>
		<path id="XMLID_27_" d="M142.7003937,66.7599182V65.334137c0.1855469,0.0390625,0.4492188,0.0488281,0.6640625,0.0488281
			c0.9472656,0,1.4746094-0.4589844,1.8652344-1.6406212l0.234375-0.7128906l-3.75-10.1660156h1.8164062l2.8125,8.4570312h0.0292969
			l2.8125-8.4570312h1.7871094l-3.9941406,10.8691406c-0.8691406,2.3730431-1.7089844,3.0859337-3.5449219,3.0859337
			C143.2277374,66.818512,142.8859406,66.7989807,142.7003937,66.7599182z"/>
		<path id="XMLID_29_" d="M152.1720734,63.8595314h1.7480469c0.3320312,0.9277306,1.3378906,1.5429649,2.6074219,1.5429649
			c1.7578125,0,2.8222656-1.015625,2.8222656-2.5292931v-1.6015625h-0.0390625
			c-0.625,1.1035156-1.8261719,1.7480469-3.2519531,1.7480469c-2.5683594,0-4.2871094-2.0410156-4.2871094-5.1171875
			c0-3.1054688,1.71875-5.1367188,4.3261719-5.1367188c1.4355469,0,2.6269531,0.6347656,3.3007812,1.7480469h0.0292969v-1.6503906
			h1.6210938v9.9511719c0,2.4218712-1.7871094,4.0331993-4.5898438,4.0331993
			C154.2228546,66.8478088,152.4552765,65.5880432,152.1720734,63.8595314z M159.3498077,57.9025002
			c0-2.1582031-1.1816406-3.6328125-2.9492188-3.6328125c-1.7480469,0-2.890625,1.4355469-2.890625,3.6328125
			s1.1425781,3.6132812,2.890625,3.6132812C158.1681671,61.5157814,159.3498077,60.0607033,159.3498077,57.9025002z"/>
		<path id="XMLID_32_" d="M163.6759644,52.8634377h1.6015778v1.6601562h0.0390625
			c0.3027344-1.0742188,1.2695312-1.7578125,2.4609375-1.7578125c0.2929688,0,0.5371094,0.0292969,0.6835938,0.0585938v1.6601562
			c-0.1367188-0.0488281-0.4980469-0.0976562-0.9082031-0.0976562c-1.3183594,0-2.1777344,0.9472656-2.1777344,2.3828125v6.25
			h-1.699234V52.8634377z"/>
		<path id="XMLID_34_" d="M169.2316437,57.9415627c0-3.1640625,1.8359375-5.1757812,4.7070312-5.1757812
			c2.8613281,0,4.6972656,2.0117188,4.6972656,5.1757812c0,3.1542969-1.8359375,5.1757812-4.6972656,5.1757812
			C171.0675812,63.1173439,169.2316437,61.0958595,169.2316437,57.9415627z M176.9074249,57.9415627
			c0-2.3144531-1.1035156-3.6816406-2.96875-3.6816406c-1.875,0-2.9785156,1.3769531-2.9785156,3.6816406
			c0,2.3144531,1.1132812,3.6816406,2.9785156,3.6816406S176.9074249,60.2560158,176.9074249,57.9415627z"/>
		<path id="XMLID_37_" d="M189.0246124,63.0196877h-1.6113281v-1.6894531h-0.0390625
			c-0.625,1.1816406-1.6601562,1.7871094-3.2226562,1.7871094c-2.2167969,0-3.515625-1.4355469-3.515625-3.7402344v-6.5136719
			h1.6992188v6.2109375c0,1.6503906,0.7714844,2.5390625,2.34375,2.5390625c1.6503906,0,2.6464844-1.1328125,2.6464844-2.8613281
			v-5.8886719h1.6992188V63.0196877z"/>
		<path id="XMLID_39_" d="M191.5617218,52.8634377h1.6015625v1.6601562h0.0390625
			c0.6347656-1.1621094,1.6503906-1.7578125,3.2226562-1.7578125c2.2265625,0,3.515625,1.4355469,3.515625,3.7402344v6.5136719
			h-1.6992188v-6.2109375c0-1.640625-0.7617188-2.5390625-2.34375-2.5390625c-1.640625,0-2.6367188,1.1425781-2.6367188,2.8613281
			v5.8886719h-1.6992188V52.8634377z"/>
		<path id="XMLID_41_" d="M201.9416046,57.9415627c0-3.1054688,1.7871094-5.1757812,4.3066406-5.1757812
			c1.4550781,0,2.6171875,0.6347656,3.2324219,1.7480469h0.0390625v-5.5859375h1.6992188v14.0917969h-1.6210938v-1.71875h-0.0292969
			c-0.6542969,1.171875-1.8164062,1.8164062-3.28125,1.8164062
			C203.7384796,63.1173439,201.9416046,61.0470314,201.9416046,57.9415627z M203.6798859,57.9415627
			c0,2.2265625,1.171875,3.671875,2.9296875,3.671875c1.7480469,0,2.9199219-1.4746094,2.9199219-3.671875
			c0-2.1875-1.171875-3.671875-2.9199219-3.671875C204.8517609,54.2696877,203.6798859,55.7247658,203.6798859,57.9415627z"/>
		<path id="XMLID_44_" d="M217.4669952,52.775547c2.0898438,0,3.6621094,1.2304688,3.7207031,2.9199219h-1.6210938
			c-0.0976562-0.9472656-0.9179688-1.5332031-2.1582031-1.5332031c-1.2304688,0-2.0605469,0.5859375-2.0605469,1.4550781
			c0,0.6835938,0.5371094,1.1328125,1.6894531,1.4257812l1.5722656,0.3808594
			c2.0507812,0.5175781,2.7929688,1.2402344,2.7929688,2.7148438c0,1.7480469-1.6796875,2.9785156-4.0429688,2.9785156
			c-2.2167969,0-3.7988281-1.1914062-3.9550781-2.96875h1.6992188c0.1660156,1.0351562,0.9960938,1.5820312,2.3632812,1.5820312
			s2.2265625-0.5664062,2.2265625-1.4648438c0-0.703125-0.4199219-1.0742188-1.5625-1.3769531l-1.7871094-0.4589844
			c-1.7871094-0.4589844-2.6660156-1.3574219-2.6660156-2.7246094
			C213.6779327,53.9864845,215.2404327,52.775547,217.4669952,52.775547z"/>
	</g>
	<g id="XMLID_91_">
		<path id="XMLID_92_" d="M51.4311218,46.330101c-0.0780983,0.222599-1.3280983,4.5312004-4.375,8.982399
			c-2.6307983,3.8496017-5.3631973,7.6855011-9.669899,7.7636986c-4.2284927,0.080101-5.5897999-2.5098-10.4218998-2.5098
			c-4.8377991,0-6.3495941,2.4316025-10.3475933,2.589901c-4.1543064,0.1562004-7.3223066-4.1622009-9.9727058-7.9961014
			c-5.4276996-7.8437996-9.5682945-22.1621971-3.9999998-31.8203983c2.7577999-4.8027,7.7011995-7.8417997,13.0644999-7.9198999
			c4.0839987-0.0761003,7.9296999,2.7421999,10.4257994,2.7421999c2.4921989,0,7.169899-3.3926001,12.0878983-2.8944998
			c2.058506,0.0879002,7.8398018,0.8280993,11.5527,6.2636995c-0.294899,0.1875-6.8983994,4.0291996-6.8261909,12.0175018
			C43.034729,43.1113014,51.3335228,46.2910004,51.4311218,46.330101z M34.9995232,10.0839996
			C37.2104225,7.4102001,38.6929245,3.6973,38.2866211,0c-3.1777,0.1172-7.027298,2.1152-9.3026981,4.7852001
			c-2.044899,2.3631997-3.8379002,6.1444998-3.3516006,9.7656002C29.1733227,14.8261995,32.7983246,12.75,34.9995232,10.0839996z"/>
	</g>
</g>
<g>
</g>
<g>
</g>
<g>
</g>
<g>
</g>
<g>
</g>
<g>
</g>
</svg>
